<?xml version='1.0' encoding='UTF-8'?>
<svg width="28mm" height="28mm" version="1.1" viewBox="0 0 28 28" xmlns="http://www.w3.org/2000/svg"><path d="M2.4,2.4H3.2V3.2H2.4zM3.2,2.4H4V3.2H3.2zM4,2.4H4.8V3.2H4zM4.8,2.4H5.6V3.2H4.8zM5.6,2.4H6.4V3.2H5.6zM6.4,2.4H7.2V3.2H6.4zM7.2,2.4H8V3.2H7.2zM8.8,2.4H9.6V3.2H8.8zM9.6,2.4H10.4V3.2H9.6zM11.2,2.4H12V3.2H11.2zM12,2.4H12.8V3.2H12zM12.8,2.4H13.6V3.2H12.8zM14.4,2.4H15.2V3.2H14.4zM15.2,2.4H16V3.2H15.2zM20,2.4H20.8V3.2H20zM20.8,2.4H21.6V3.2H20.8zM21.6,2.4H22.4V3.2H21.6zM22.4,2.4H23.2V3.2H22.4zM23.2,2.4H24V3.2H23.2zM24,2.4H24.8V3.2H24zM24.8,2.4H25.6V3.2H24.8zM2.4,3.2H3.2V4H2.4zM7.2,3.2H8V4H7.2zM9.6,3.2H10.4V4H9.6zM10.4,3.2H11.2V4H10.4zM11.2,3.2H12V4H11.2zM13.6,3.2H14.4V4H13.6zM15.2,3.2H16V4H15.2zM17.6,3.2H18.4V4H17.6zM18.4,3.2H19.2V4H18.4zM20,3.2H20.8V4H20zM24.8,3.2H25.6V4H24.8zM2.4,4H3.2V4.8H2.4zM4,4H4.8V4.8H4zM4.8,4H5.6V4.8H4.8zM5.6,4H6.4V4.8H5.6zM7.2,4H8V4.8H7.2zM9.6,4H10.4V4.8H9.6zM10.4,4H11.2V4.8H10.4zM11.2,4H12V4.8H11.2zM12,4H12.8V4.8H12zM13.6,4H14.4V4.8H13.6zM16,4H16.8V4.8H16zM16.8,4H17.6V4.8H16.8zM17.6,4H18.4V4.8H17.6zM18.4,4H19.2V4.8H18.4zM20,4H20.8V4.8H20zM21.6,4H22.4V4.8H21.6zM22.4,4H23.2V4.8H22.4zM23.2,4H24V4.8H23.2zM24.8,4H25.6V4.8H24.8zM2.4,4.8H3.2V5.6H2.4zM4,4.8H4.8V5.6H4zM4.8,4.8H5.6V5.6H4.8zM5.6,4.8H6.4V5.6H5.6zM7.2,4.8H8V5.6H7.2zM8.8,4.8H9.6V5.6H8.8zM10.4,4.8H11.2V5.6H10.4zM12.8,4.8H13.6V5.6H12.8zM13.6,4.8H14.4V5.6H13.6zM15.2,4.8H16V5.6H15.2zM16.8,4.8H17.6V5.6H16.8zM20,4.8H20.8V5.6H20zM21.6,4.8H22.4V5.6H21.6zM22.4,4.8H23.2V5.6H22.4zM23.2,4.8H24V5.6H23.2zM24.8,4.8H25.6V5.6H24.8zM2.4,5.6H3.2V6.4H2.4zM4,5.6H4.8V6.4H4zM4.8,5.6H5.6V6.4H4.8zM5.6,5.6H6.4V6.4H5.6zM7.2,5.6H8V6.4H7.2zM8.8,5.6H9.6V6.4H8.8zM10.4,5.6H11.2V6.4H10.4zM11.2,5.6H12V6.4H11.2zM12,5.6H12.8V6.4H12zM12.8,5.6H13.6V6.4H12.8zM13.6,5.6H14.4V6.4H13.6zM14.4,5.6H15.2V6.4H14.4zM15.2,5.6H16V6.4H15.2zM16,5.6H16.8V6.4H16zM16.8,5.6H17.6V6.4H16.8zM20,5.6H20.8V6.4H20zM21.6,5.6H22.4V6.4H21.6zM22.4,5.6H23.2V6.4H22.4zM23.2,5.6H24V6.4H23.2zM24.8,5.6H25.6V6.4H24.8zM2.4,6.4H3.2V7.2H2.4zM7.2,6.4H8V7.2H7.2zM8.8,6.4H9.6V7.2H8.8zM9.6,6.4H10.4V7.2H9.6zM10.4,6.4H11.2V7.2H10.4zM12,6.4H12.8V7.2H12zM12.8,6.4H13.6V7.2H12.8zM15.2,6.4H16V7.2H15.2zM16,6.4H16.8V7.2H16zM17.6,6.4H18.4V7.2H17.6zM18.4,6.4H19.2V7.2H18.4zM20,6.4H20.8V7.2H20zM24.8,6.4H25.6V7.2H24.8zM2.4,7.2H3.2V8H2.4zM3.2,7.2H4V8H3.2zM4,7.2H4.8V8H4zM4.8,7.2H5.6V8H4.8zM5.6,7.2H6.4V8H5.6zM6.4,7.2H7.2V8H6.4zM7.2,7.2H8V8H7.2zM8.8,7.2H9.6V8H8.8zM10.4,7.2H11.2V8H10.4zM12,7.2H12.8V8H12zM13.6,7.2H14.4V8H13.6zM15.2,7.2H16V8H15.2zM16.8,7.2H17.6V8H16.8zM18.4,7.2H19.2V8H18.4zM20,7.2H20.8V8H20zM20.8,7.2H21.6V8H20.8zM21.6,7.2H22.4V8H21.6zM22.4,7.2H23.2V8H22.4zM23.2,7.2H24V8H23.2zM24,7.2H24.8V8H24zM24.8,7.2H25.6V8H24.8zM8.8,8H9.6V8.8H8.8zM9.6,8H10.4V8.8H9.6zM13.6,8H14.4V8.8H13.6zM16,8H16.8V8.8H16zM17.6,8H18.4V8.8H17.6zM18.4,8H19.2V8.8H18.4zM2.4,8.8H3.2V9.6H2.4zM5.6,8.8H6.4V9.6H5.6zM7.2,8.8H8V9.6H7.2zM8,8.8H8.8V9.6H8zM8.8,8.8H9.6V9.6H8.8zM10.4,8.8H11.2V9.6H10.4zM11.2,8.8H12V9.6H11.2zM12,8.8H12.8V9.6H12zM14.4,8.8H15.2V9.6H14.4zM16,8.8H16.8V9.6H16zM16.8,8.8H17.6V9.6H16.8zM18.4,8.8H19.2V9.6H18.4zM19.2,8.8H20V9.6H19.2zM20,8.8H20.8V9.6H20zM20.8,8.8H21.6V9.6H20.8zM21.6,8.8H22.4V9.6H21.6zM22.4,8.8H23.2V9.6H22.4zM24.8,8.8H25.6V9.6H24.8zM2.4,9.6H3.2V10.4H2.4zM4.8,9.6H5.6V10.4H4.8zM8,9.6H8.8V10.4H8zM8.8,9.6H9.6V10.4H8.8zM9.6,9.6H10.4V10.4H9.6zM12,9.6H12.8V10.4H12zM12.8,9.6H13.6V10.4H12.8zM14.4,9.6H15.2V10.4H14.4zM15.2,9.6H16V10.4H15.2zM16,9.6H16.8V10.4H16zM16.8,9.6H17.6V10.4H16.8zM18.4,9.6H19.2V10.4H18.4zM20,9.6H20.8V10.4H20zM20.8,9.6H21.6V10.4H20.8zM21.6,9.6H22.4V10.4H21.6zM22.4,9.6H23.2V10.4H22.4zM23.2,9.6H24V10.4H23.2zM24,9.6H24.8V10.4H24zM24.8,9.6H25.6V10.4H24.8zM2.4,10.4H3.2V11.2H2.4zM3.2,10.4H4V11.2H3.2zM5.6,10.4H6.4V11.2H5.6zM7.2,10.4H8V11.2H7.2zM8.8,10.4H9.6V11.2H8.8zM9.6,10.4H10.4V11.2H9.6zM10.4,10.4H11.2V11.2H10.4zM11.2,10.4H12V11.2H11.2zM12,10.4H12.8V11.2H12zM12.8,10.4H13.6V11.2H12.8zM14.4,10.4H15.2V11.2H14.4zM15.2,10.4H16V11.2H15.2zM16.8,10.4H17.6V11.2H16.8zM21.6,10.4H22.4V11.2H21.6zM24.8,10.4H25.6V11.2H24.8zM6.4,11.2H7.2V12H6.4zM9.6,11.2H10.4V12H9.6zM10.4,11.2H11.2V12H10.4zM12,11.2H12.8V12H12zM14.4,11.2H15.2V12H14.4zM15.2,11.2H16V12H15.2zM16,11.2H16.8V12H16zM16.8,11.2H17.6V12H16.8zM18.4,11.2H19.2V12H18.4zM22.4,11.2H23.2V12H22.4zM24,11.2H24.8V12H24zM24.8,11.2H25.6V12H24.8zM3.2,12H4V12.8H3.2zM4,12H4.8V12.8H4zM7.2,12H8V12.8H7.2zM8.8,12H9.6V12.8H8.8zM9.6,12H10.4V12.8H9.6zM10.4,12H11.2V12.8H10.4zM13.6,12H14.4V12.8H13.6zM14.4,12H15.2V12.8H14.4zM16,12H16.8V12.8H16zM17.6,12H18.4V12.8H17.6zM19.2,12H20V12.8H19.2zM24,12H24.8V12.8H24zM2.4,12.8H3.2V13.6H2.4zM4,12.8H4.8V13.6H4zM4.8,12.8H5.6V13.6H4.8zM6.4,12.8H7.2V13.6H6.4zM8,12.8H8.8V13.6H8zM11.2,12.8H12V13.6H11.2zM12,12.8H12.8V13.6H12zM13.6,12.8H14.4V13.6H13.6zM14.4,12.8H15.2V13.6H14.4zM15.2,12.8H16V13.6H15.2zM16.8,12.8H17.6V13.6H16.8zM20,12.8H20.8V13.6H20zM20.8,12.8H21.6V13.6H20.8zM21.6,12.8H22.4V13.6H21.6zM22.4,12.8H23.2V13.6H22.4zM23.2,12.8H24V13.6H23.2zM24,12.8H24.8V13.6H24zM24.8,12.8H25.6V13.6H24.8zM2.4,13.6H3.2V14.4H2.4zM4.8,13.6H5.6V14.4H4.8zM5.6,13.6H6.4V14.4H5.6zM6.4,13.6H7.2V14.4H6.4zM7.2,13.6H8V14.4H7.2zM9.6,13.6H10.4V14.4H9.6zM12.8,13.6H13.6V14.4H12.8zM13.6,13.6H14.4V14.4H13.6zM14.4,13.6H15.2V14.4H14.4zM16.8,13.6H17.6V14.4H16.8zM18.4,13.6H19.2V14.4H18.4zM20,13.6H20.8V14.4H20zM21.6,13.6H22.4V14.4H21.6zM22.4,13.6H23.2V14.4H22.4zM23.2,13.6H24V14.4H23.2zM24.8,13.6H25.6V14.4H24.8zM5.6,14.4H6.4V15.2H5.6zM8.8,14.4H9.6V15.2H8.8zM9.6,14.4H10.4V15.2H9.6zM11.2,14.4H12V15.2H11.2zM13.6,14.4H14.4V15.2H13.6zM15.2,14.4H16V15.2H15.2zM16,14.4H16.8V15.2H16zM17.6,14.4H18.4V15.2H17.6zM20,14.4H20.8V15.2H20zM21.6,14.4H22.4V15.2H21.6zM24,14.4H24.8V15.2H24zM24.8,14.4H25.6V15.2H24.8zM2.4,15.2H3.2V16H2.4zM7.2,15.2H8V16H7.2zM8,15.2H8.8V16H8zM9.6,15.2H10.4V16H9.6zM12,15.2H12.8V16H12zM12.8,15.2H13.6V16H12.8zM13.6,15.2H14.4V16H13.6zM16,15.2H16.8V16H16zM17.6,15.2H18.4V16H17.6zM19.2,15.2H20V16H19.2zM24,15.2H24.8V16H24zM2.4,16H3.2V16.8H2.4zM6.4,16H7.2V16.8H6.4zM8,16H8.8V16.8H8zM8.8,16H9.6V16.8H8.8zM11.2,16H12V16.8H11.2zM12,16H12.8V16.8H12zM13.6,16H14.4V16.8H13.6zM14.4,16H15.2V16.8H14.4zM15.2,16H16V16.8H15.2zM16,16H16.8V16.8H16zM16.8,16H17.6V16.8H16.8zM19.2,16H20V16.8H19.2zM20,16H20.8V16.8H20zM20.8,16H21.6V16.8H20.8zM21.6,16H22.4V16.8H21.6zM22.4,16H23.2V16.8H22.4zM24,16H24.8V16.8H24zM24.8,16H25.6V16.8H24.8zM4,16.8H4.8V17.6H4zM4.8,16.8H5.6V17.6H4.8zM7.2,16.8H8V17.6H7.2zM8,16.8H8.8V17.6H8zM8.8,16.8H9.6V17.6H8.8zM9.6,16.8H10.4V17.6H9.6zM11.2,16.8H12V17.6H11.2zM12,16.8H12.8V17.6H12zM12.8,16.8H13.6V17.6H12.8zM13.6,16.8H14.4V17.6H13.6zM14.4,16.8H15.2V17.6H14.4zM16,16.8H16.8V17.6H16zM19.2,16.8H20V17.6H19.2zM20,16.8H20.8V17.6H20zM20.8,16.8H21.6V17.6H20.8zM23.2,16.8H24V17.6H23.2zM24.8,16.8H25.6V17.6H24.8zM4,17.6H4.8V18.4H4zM6.4,17.6H7.2V18.4H6.4zM8,17.6H8.8V18.4H8zM10.4,17.6H11.2V18.4H10.4zM12,17.6H12.8V18.4H12zM12.8,17.6H13.6V18.4H12.8zM14.4,17.6H15.2V18.4H14.4zM16,17.6H16.8V18.4H16zM16.8,17.6H17.6V18.4H16.8zM17.6,17.6H18.4V18.4H17.6zM20.8,17.6H21.6V18.4H20.8zM21.6,17.6H22.4V18.4H21.6zM24,17.6H24.8V18.4H24zM24.8,17.6H25.6V18.4H24.8zM2.4,18.4H3.2V19.2H2.4zM3.2,18.4H4V19.2H3.2zM4.8,18.4H5.6V19.2H4.8zM6.4,18.4H7.2V19.2H6.4zM7.2,18.4H8V19.2H7.2zM12,18.4H12.8V19.2H12zM12.8,18.4H13.6V19.2H12.8zM14.4,18.4H15.2V19.2H14.4zM16,18.4H16.8V19.2H16zM17.6,18.4H18.4V19.2H17.6zM18.4,18.4H19.2V19.2H18.4zM19.2,18.4H20V19.2H19.2zM20,18.4H20.8V19.2H20zM20.8,18.4H21.6V19.2H20.8zM21.6,18.4H22.4V19.2H21.6zM22.4,18.4H23.2V19.2H22.4zM24.8,18.4H25.6V19.2H24.8zM8.8,19.2H9.6V20H8.8zM10.4,19.2H11.2V20H10.4zM12.8,19.2H13.6V20H12.8zM13.6,19.2H14.4V20H13.6zM14.4,19.2H15.2V20H14.4zM16,19.2H16.8V20H16zM16.8,19.2H17.6V20H16.8zM18.4,19.2H19.2V20H18.4zM21.6,19.2H22.4V20H21.6zM24.8,19.2H25.6V20H24.8zM2.4,20H3.2V20.8H2.4zM3.2,20H4V20.8H3.2zM4,20H4.8V20.8H4zM4.8,20H5.6V20.8H4.8zM5.6,20H6.4V20.8H5.6zM6.4,20H7.2V20.8H6.4zM7.2,20H8V20.8H7.2zM8.8,20H9.6V20.8H8.8zM9.6,20H10.4V20.8H9.6zM11.2,20H12V20.8H11.2zM14.4,20H15.2V20.8H14.4zM15.2,20H16V20.8H15.2zM16.8,20H17.6V20.8H16.8zM17.6,20H18.4V20.8H17.6zM18.4,20H19.2V20.8H18.4zM20,20H20.8V20.8H20zM21.6,20H22.4V20.8H21.6zM22.4,20H23.2V20.8H22.4zM23.2,20H24V20.8H23.2zM24.8,20H25.6V20.8H24.8zM2.4,20.8H3.2V21.6H2.4zM7.2,20.8H8V21.6H7.2zM9.6,20.8H10.4V21.6H9.6zM10.4,20.8H11.2V21.6H10.4zM11.2,20.8H12V21.6H11.2zM13.6,20.8H14.4V21.6H13.6zM15.2,20.8H16V21.6H15.2zM16,20.8H16.8V21.6H16zM17.6,20.8H18.4V21.6H17.6zM18.4,20.8H19.2V21.6H18.4zM21.6,20.8H22.4V21.6H21.6zM24,20.8H24.8V21.6H24zM24.8,20.8H25.6V21.6H24.8zM2.4,21.6H3.2V22.4H2.4zM4,21.6H4.8V22.4H4zM4.8,21.6H5.6V22.4H4.8zM5.6,21.6H6.4V22.4H5.6zM7.2,21.6H8V22.4H7.2zM8.8,21.6H9.6V22.4H8.8zM10.4,21.6H11.2V22.4H10.4zM12.8,21.6H13.6V22.4H12.8zM13.6,21.6H14.4V22.4H13.6zM15.2,21.6H16V22.4H15.2zM16,21.6H16.8V22.4H16zM17.6,21.6H18.4V22.4H17.6zM18.4,21.6H19.2V22.4H18.4zM19.2,21.6H20V22.4H19.2zM20,21.6H20.8V22.4H20zM20.8,21.6H21.6V22.4H20.8zM21.6,21.6H22.4V22.4H21.6zM22.4,21.6H23.2V22.4H22.4zM24.8,21.6H25.6V22.4H24.8zM2.4,22.4H3.2V23.2H2.4zM4,22.4H4.8V23.2H4zM4.8,22.4H5.6V23.2H4.8zM5.6,22.4H6.4V23.2H5.6zM7.2,22.4H8V23.2H7.2zM12.8,22.4H13.6V23.2H12.8zM14.4,22.4H15.2V23.2H14.4zM15.2,22.4H16V23.2H15.2zM16.8,22.4H17.6V23.2H16.8zM18.4,22.4H19.2V23.2H18.4zM19.2,22.4H20V23.2H19.2zM24.8,22.4H25.6V23.2H24.8zM2.4,23.2H3.2V24H2.4zM4,23.2H4.8V24H4zM4.8,23.2H5.6V24H4.8zM5.6,23.2H6.4V24H5.6zM7.2,23.2H8V24H7.2zM12,23.2H12.8V24H12zM12.8,23.2H13.6V24H12.8zM14.4,23.2H15.2V24H14.4zM16.8,23.2H17.6V24H16.8zM18.4,23.2H19.2V24H18.4zM19.2,23.2H20V24H19.2zM22.4,23.2H23.2V24H22.4zM23.2,23.2H24V24H23.2zM24,23.2H24.8V24H24zM24.8,23.2H25.6V24H24.8zM2.4,24H3.2V24.8H2.4zM7.2,24H8V24.8H7.2zM9.6,24H10.4V24.8H9.6zM12,24H12.8V24.8H12zM12.8,24H13.6V24.8H12.8zM13.6,24H14.4V24.8H13.6zM14.4,24H15.2V24.8H14.4zM16,24H16.8V24.8H16zM16.8,24H17.6V24.8H16.8zM18.4,24H19.2V24.8H18.4zM20,24H20.8V24.8H20zM21.6,24H22.4V24.8H21.6zM22.4,24H23.2V24.8H22.4zM24,24H24.8V24.8H24zM24.8,24H25.6V24.8H24.8zM2.4,24.8H3.2V25.6H2.4zM3.2,24.8H4V25.6H3.2zM4,24.8H4.8V25.6H4zM4.8,24.8H5.6V25.6H4.8zM5.6,24.8H6.4V25.6H5.6zM6.4,24.8H7.2V25.6H6.4zM7.2,24.8H8V25.6H7.2zM8.8,24.8H9.6V25.6H8.8zM9.6,24.8H10.4V25.6H9.6zM10.4,24.8H11.2V25.6H10.4zM12.8,24.8H13.6V25.6H12.8zM16,24.8H16.8V25.6H16zM18.4,24.8H19.2V25.6H18.4zM20,24.8H20.8V25.6H20zM20.8,24.8H21.6V25.6H20.8zM21.6,24.8H22.4V25.6H21.6zM24,24.8H24.8V25.6H24z" id="qr-path" fill="#000000" fill-opacity="1" fill-rule="nonzero" stroke="none" /></svg>